<?xml version="1.0" encoding="utf-8"?>
<!-- Generator: Adobe Illustrator 19.0.0, SVG Export Plug-In . SVG Version: 6.00 Build 0)  -->
<svg version="1.1" id="Layer_1" xmlns="http://www.w3.org/2000/svg" xmlns:xlink="http://www.w3.org/1999/xlink" x="0px" y="0px"
	 viewBox="0 0 304.3 178.3" style="enable-background:new 0 0 304.3 178.3;" xml:space="preserve">
<style type="text/css">
	.st0{fill:#FFFFFF;}
</style>
<g id="XMLID_2_">
	<path id="XMLID_3_" class="st0" d="M27.3,134.5l10.2-3V91c0-2.4-0.2-4-0.5-4.7c-0.3-0.7-1.2-1.5-2.7-2.4l-7.3-4l0.5-12.5
		c1.9-0.4,3.5-0.7,4.8-0.8c13.4-2.8,23.4-4.3,29.8-4.5c1,2.9,1.9,6.5,2.8,10.8C71.6,67.6,77.3,64,82,62h9.5
		c-0.1,4.2-0.4,8.8-0.8,13.7c-0.4,4.9-1,8.9-1.7,11.9c-4-0.2-6.9-0.3-8.8-0.3c-4.7,0-9.5,0.3-14.5,0.8V126c0,2.3,0.2,3.9,0.5,4.7
		c0.3,0.8,1.2,1.6,2.7,2.5l10,5.3l-0.7,11.8h-50L27.3,134.5z"/>
	<path id="XMLID_5_" class="st0" d="M104,146.2c-4.6-4.2-6.8-9.5-6.8-16.1c0-8.8,4.4-15.7,13.2-20.7c8.8-5,21.7-7.8,38.6-8.5
		c0-5.2-0.4-9.1-1.2-11.6s-2.3-4.2-4.5-5.2c-2.2-0.9-5.5-1.4-9.9-1.4c-4.6,0-7.8,0.2-9.7,0.5l-6.8,13.5L104.5,96
		c-1.9-8.9-3.2-18.1-4-27.6c6.2-2.1,13-3.8,20.4-5c7.4-1.2,14.3-1.8,20.7-1.8c11.8,0,20.2,2.3,25.3,6.9c5.1,4.6,7.7,12.2,7.7,22.9
		v34.8c0,2,0.2,3.4,0.6,4.2c0.4,0.8,1.2,1.6,2.6,2.3l6.7,3.8l-0.7,10.3c-12.9,3-23,4.7-30.5,5c-0.2-0.7-0.6-1.9-1-3.6
		c-0.4-1.7-0.8-3.4-1.2-4.9c-4.3,2.8-9.1,5-14.2,6.7c-5.2,1.7-10.1,2.5-14.7,2.5C114.6,152.5,108.5,150.4,104,146.2z M149.4,129.1
		l-0.7-12.7c-2.7-0.2-4.4-0.3-5.3-0.3c-3,0-6.5,0.3-10.5,0.9c-4,0.6-7.2,1.3-9.5,2.1c-0.3,1.4-0.5,2.8-0.5,4c0,3.3,0.9,5.9,2.7,7.7
		s4.4,2.7,7.6,2.7C137.7,133.6,143.1,132.1,149.4,129.1z"/>
	<path id="XMLID_8_" class="st0" d="M198.4,140.5c-6-8-9-18.7-9-32.1c0-15.4,4.1-27.1,12.2-35c8.2-7.9,19.8-11.8,34.9-11.8
		c0.9,0,3.8,0.1,8.7,0.3v-10c0-2.4-0.2-4.1-0.5-4.8c-0.3-0.8-1.3-1.6-2.8-2.5l-7.5-3.8l0.8-12.7c10.7-1.9,18.5-3.2,23.7-3.9
		c5.1-0.7,9.2-1.1,12.2-1.2c1,2.6,1.7,5.4,2.2,8.7v94.8c0,2,0.2,3.4,0.6,4.2c0.4,0.8,1.3,1.6,2.7,2.3l6.3,3.8l-0.7,10.3
		c-10.9,2.8-21.5,4.4-32,5c-0.8-2.1-1.6-4.7-2.3-7.7c-7.6,5.4-15.7,8.2-24.5,8.2C212.7,152.5,204.4,148.5,198.4,140.5z M245.4,127.5
		V84.3c-3.3-1.4-7.6-2.2-12.8-2.2c-4.2,0-8.3,0.6-12.2,1.7c-0.9,2.1-1.6,5-2.1,8.7c-0.5,3.7-0.7,7.7-0.7,12.2
		c0,9.1,1.2,15.8,3.7,20.1c2.5,4.3,6.4,6.4,11.7,6.4C236.7,131.1,240.8,129.9,245.4,127.5z"/>
</g>
</svg>
